<?xml version="1.0" encoding="utf-8"?>
<!-- Generator: Adobe Illustrator 23.0.3, SVG Export Plug-In . SVG Version: 6.00 Build 0)  -->
<svg version="1.1" id="Layer_1" xmlns="http://www.w3.org/2000/svg" xmlns:xlink="http://www.w3.org/1999/xlink" x="0px" y="0px"
	 viewBox="0 0 848 875" style="enable-background:new 0 0 848 875;" xml:space="preserve">
<style type="text/css">
	.st0{fill:#19A29B;}
	.st1{fill-rule:evenodd;clip-rule:evenodd;fill:url(#SVGID_1_);}
</style>
<g>
	<g>
		<g>
			<path class="st0" d="M235.5,769c6.97,32.83,13.94,65.67,20.91,98.5h44.24c-13.05-56.17-26.1-112.33-39.15-168.5
				C252.83,722.33,244.17,745.67,235.5,769z"/>
			<path class="st0" d="M509.5,674c29.12,25.11,58.25,50.22,87.37,75.34L581.23,867.5h38.31l19.53-140.43
				c-31.19-25.36-62.38-50.72-93.56-76.07C533.5,658.67,521.5,666.33,509.5,674z"/>
			<path class="st0" d="M664.68,605.27c6.94-33.76,13.88-67.51,20.82-101.27c-15.24-13.28-30.48-26.56-45.71-39.84
				c12.96-5.06,55.77-23.63,82.71-71.16c8.55-15.09,32.06-55.74,19-104c-7.07-26.13-21.96-43.83-31-53c2.17,14.89,7.66,65.54-23,117
				c-26.05,43.74-63.57,63.48-78.22,70.26c-70.14,0-140.29,0-210.43,0L248.79,250.29c-18.78,22.75-58.97,29.83-58.97,29.83
				c9.41-4.04,21.55-10.48,33.89-20.73c19.32-16.05,30.11-33.97,35.79-45.39c-25.07,8.05-50.76,15.42-77.1,22.03
				c-1.3,0.33-2.6,0.65-3.9,0.97c-0.51-16.46,1-47.02,19.37-76.6c2.12-3.41,10.52-16.55,26.63-30.4c104.44-89.77,225-82,225-82
				c114.32,7.37,187.94,88.42,191,84c3.15-4.54-63.97-88.3-172-113c-142.49-32.58-283.94,54.65-329,127
				c-14.84,23.83-30.83,49.51-33,80c-0.45,6.26-1.55,30.21-4.41,76.38c0,0,0,0.04,0,0.04C99.07,351.22,88.86,391.94,73.5,426
				c22.33,1,44.67,2,67,3c5.54-13.37,11.08-26.73,16.63-40.1l57.19-47.48l-48.47,55.1v50.12l-0.09,0.07v76.55
				c0.25,6.25,0.49,12.5,0.74,18.74c28.31-30.71,56.63-61.42,84.94-92.12h74.39l-69.54,7.43l-86.19,96.52l21.43,150.95L144.18,867.5
				h42.09l47.54-122.34l27.45-70.62l13.5-34.74L310,548.71l-17.81,93.16c33.44,11.71,66.88,23.42,100.32,35.13
				c36.66-3.39,73.32-6.78,109.97-10.17l36.3-23.68l-53.58-54.78l49.61,37.56l14.06,10.64l92.93,70.98l44.12,33.7l-8.63,126.26
				h35.61l10.55-120.73L664.68,605.27z"/>
		</g>
		<path class="st0" d="M165.5,505"/>
	</g>
	
		<linearGradient id="SVGID_1_" gradientUnits="userSpaceOnUse" x1="115.7257" y1="307.2694" x2="173.9588" y2="307.2694" gradientTransform="matrix(0.9864 -0.684 0.5778 0.8333 -166.7984 148.3299)">
		<stop  offset="0" style="stop-color:#19A29B"/>
		<stop  offset="1" style="stop-color:#FFFFFF"/>
	</linearGradient>
	<path class="st1" d="M185.7,290.35c1.87,4.78-11.52,16.48-23.95,23.03c-16.3,8.6-38.22,12.16-40.24,6.84
		c-2.42-6.37,22.86-27.45,48.27-31.45C173.17,288.23,184.2,286.49,185.7,290.35z"/>
</g>
</svg>
